<?xml version="1.0" standalone="no"?>
<!DOCTYPE svg PUBLIC "-//W3C//DTD SVG 20010904//EN"
 "http://www.w3.org/TR/2001/REC-SVG-20010904/DTD/svg10.dtd">
<svg version="1.0" xmlns="http://www.w3.org/2000/svg"
 width="1024.000000pt" height="1024.000000pt" viewBox="0 0 1024.000000 1024.000000"
 preserveAspectRatio="xMidYMid meet">
<metadata>
Created by potrace 1.11, written by Peter Selinger 2001-2013
</metadata>
<g transform="translate(0.000000,1024.000000) scale(0.100000,-0.100000)"
fill="#000000" stroke="none">
<path d="M5009 8946 c-2 -2 -40 -6 -84 -10 -72 -5 -148 -14 -275 -32 -36 -5
-263 -50 -342 -69 -215 -50 -539 -170 -783 -291 -561 -278 -1050 -694 -1417
-1207 -197 -275 -366 -597 -483 -921 -36 -100 -103 -320 -111 -366 -3 -14 -11
-50 -19 -80 -15 -60 -18 -72 -39 -200 -20 -114 -25 -152 -32 -219 -3 -31 -8
-72 -11 -91 -9 -63 -11 -583 -2 -665 5 -44 11 -107 14 -140 3 -33 8 -71 10
-85 11 -69 15 -92 30 -180 9 -52 18 -97 21 -101 2 -4 6 -24 10 -45 10 -63 91
-340 135 -459 149 -406 371 -791 654 -1132 99 -120 309 -334 425 -433 41 -36
77 -68 80 -71 12 -14 214 -162 305 -224 358 -244 874 -471 1251 -550 10 -2 48
-10 84 -19 72 -17 221 -43 290 -51 25 -3 56 -7 70 -10 150 -27 706 -27 910 0
105 14 241 35 315 50 17 3 39 8 50 9 11 2 58 14 105 26 47 12 96 24 110 26 13
3 96 29 185 58 256 85 519 203 735 330 85 51 361 233 370 245 3 4 34 29 70 56
134 102 336 292 485 456 440 485 762 1118 896 1759 11 52 22 111 25 130 3 19
7 42 9 50 2 8 7 40 10 70 3 30 8 62 10 70 19 73 27 602 12 810 -15 212 -51
421 -112 655 -100 378 -250 724 -457 1055 -57 90 -183 272 -219 315 -9 11 -52
63 -95 115 -131 158 -380 401 -537 523 -28 23 -54 44 -57 47 -19 22 -372 260
-386 260 -3 0 -18 9 -33 19 -81 58 -426 220 -621 291 -85 31 -290 95 -332 104
-13 3 -72 16 -133 30 -95 22 -159 34 -331 61 -17 3 -56 8 -85 11 -30 3 -70 8
-89 11 -38 5 -586 14 -591 9z m454 -1150 c51 -4 121 -12 157 -17 36 -6 74 -12
85 -14 105 -15 284 -60 415 -105 511 -174 964 -503 1292 -941 351 -467 540
-1025 541 -1594 1 -114 -10 -314 -17 -337 -3 -7 -7 -33 -10 -58 -16 -133 -66
-342 -120 -497 -229 -654 -712 -1208 -1331 -1523 -253 -130 -523 -220 -765
-255 -24 -4 -47 -8 -50 -10 -4 -3 -39 -6 -190 -20 -49 -5 -375 -5 -435 0 -537
41 -1046 243 -1472 583 -113 90 -281 253 -364 352 -30 35 -58 70 -64 76 -34
38 -140 191 -198 287 -201 332 -332 715 -372 1082 -13 124 -15 154 -15 296 0
191 14 346 45 504 8 39 17 85 20 102 17 102 116 390 177 516 21 43 38 80 38
82 0 12 108 197 163 280 251 378 595 691 994 903 201 107 485 214 653 246 14
3 36 8 50 11 14 3 36 7 50 10 14 3 36 7 49 10 13 2 49 7 80 11 31 3 58 8 61 9
3 2 55 6 115 10 61 4 111 8 112 9 4 4 221 -2 306 -8z"/>
<path d="M5059 7526 c-2 -2 -33 -7 -69 -10 -84 -9 -123 -15 -185 -27 -27 -5
-59 -11 -70 -13 -186 -36 -503 -155 -663 -249 -35 -20 -65 -37 -68 -37 -3 0
-10 -4 -17 -10 -7 -5 -50 -35 -97 -66 -190 -126 -423 -340 -543 -499 -4 -5
-21 -28 -38 -50 -18 -22 -60 -83 -94 -135 -213 -325 -347 -710 -382 -1095 -10
-103 -9 -358 0 -458 7 -75 26 -192 46 -287 92 -440 324 -861 657 -1194 317
-316 748 -555 1169 -647 22 -4 51 -11 65 -14 14 -3 43 -8 65 -11 22 -3 51 -8
65 -10 92 -15 170 -19 355 -19 272 0 381 13 618 75 238 61 429 145 695 305 56
33 155 106 235 173 415 345 692 795 822 1337 4 18 18 91 30 165 21 119 28 486
12 620 -12 106 -32 223 -49 285 -5 22 -12 48 -14 59 -6 31 -34 130 -43 151 -5
11 -19 49 -31 85 -60 174 -193 423 -318 590 -298 403 -700 696 -1182 863 -135
47 -267 77 -495 112 -45 7 -470 17 -476 11z"/>
<path d="M10003 8640 c-167 -59 -354 -263 -476 -520 -73 -154 -158 -426 -183
-584 -3 -21 -8 -48 -10 -60 -13 -68 -41 -302 -49 -421 -10 -135 -4 -669 9
-765 2 -19 7 -64 11 -100 3 -36 8 -72 10 -80 3 -8 7 -35 10 -60 5 -43 11 -87
21 -155 3 -16 7 -37 9 -45 2 -8 7 -30 10 -49 12 -73 95 -380 125 -466 33 -93
40 -108 132 -286 31 -59 63 -139 73 -180 20 -83 28 -289 15 -381 -5 -32 -11
-90 -15 -130 -4 -40 -8 -84 -10 -98 -2 -14 -6 -72 -10 -130 -4 -58 -8 -107
-10 -110 -2 -3 -6 -52 -10 -110 -4 -58 -9 -112 -10 -121 -2 -9 -6 -75 -10
-145 -8 -139 -10 -165 -20 -264 -16 -156 -28 -300 -40 -465 -6 -89 -9 -118
-20 -245 -12 -128 -14 -156 -20 -235 -3 -44 -8 -105 -11 -135 -7 -65 -9 -86
-18 -205 -4 -49 -9 -101 -11 -115 -8 -53 -18 -217 -17 -259 2 -66 50 -128 116
-148 17 -5 128 -9 246 -9 188 1 219 4 250 20 46 24 88 73 100 116 5 22 9 1346
9 3440 -1 3155 -2 3408 -17 3440 -32 64 -100 88 -179 60z"/>
<path d="M63 8466 l-28 -24 -2 -1089 c-3 -1226 -8 -1149 72 -1228 40 -41 63
-52 190 -91 77 -24 144 -87 167 -159 16 -50 17 -155 3 -305 -3 -36 -8 -110
-10 -165 -7 -160 -14 -368 -20 -535 -3 -85 -8 -193 -10 -240 -4 -80 -9 -209
-20 -500 -3 -69 -7 -170 -10 -225 -2 -55 -7 -158 -10 -230 -3 -71 -7 -170 -10
-220 -5 -102 -13 -288 -20 -450 -3 -60 -7 -164 -10 -230 -3 -66 -7 -174 -10
-240 -3 -66 -7 -178 -10 -250 -14 -319 -14 -406 1 -447 17 -49 67 -95 114
-105 19 -4 132 -7 250 -7 196 0 218 2 245 19 37 25 45 32 74 73 21 30 23 42
21 165 -1 73 -3 164 -5 202 -14 264 -30 624 -40 900 -6 166 -12 290 -21 440
-10 161 -13 238 -18 455 -8 289 -17 507 -31 760 -3 41 -7 170 -10 285 -3 116
-8 235 -10 265 -7 100 -17 334 -19 439 -2 120 10 176 47 225 26 33 109 82 156
91 83 16 153 57 191 112 53 77 51 38 52 1147 0 567 -3 1054 -7 1083 -11 86
-72 127 -137 92 -48 -26 -48 -32 -48 -772 0 -402 -4 -709 -10 -732 -15 -64
-68 -93 -120 -65 -45 24 -45 18 -50 793 l-5 739 -28 24 c-47 41 -117 29 -139
-24 -8 -19 -12 -243 -12 -737 -2 -683 -3 -712 -21 -750 -32 -65 -103 -74 -141
-18 -18 27 -19 64 -21 748 -1 396 -4 730 -8 742 -15 61 -101 85 -143 40 -13
-13 -27 -38 -32 -55 -5 -18 -8 -342 -8 -734 1 -737 2 -732 -41 -765 -40 -31
-105 -5 -124 50 -4 10 -7 336 -8 725 -1 747 -1 756 -46 790 -27 20 -79 14
-110 -12z"/>
</g>
</svg>
